<?xml version="1.0" encoding="UTF-8"?>
<svg id="_レイヤー_2" data-name="レイヤー 2" xmlns="http://www.w3.org/2000/svg" viewBox="0 0 70 70">
  <defs>
    <style>
      .cls-1 {
        fill: #231815;
      }

      .cls-1, .cls-2 {
        stroke-width: 0px;
      }

      .cls-2 {
        fill: #fff;
      }
    </style>
  </defs>
  <g id="_レイヤー_2-2" data-name="レイヤー 2">
    <g>
      <polygon class="cls-1" points="59.12 0 41.57 0 41.57 .98 39.38 .98 39.38 2.03 38.29 2.03 38.29 3.11 37.19 3.11 37.19 5.25 36.1 5.25 36.1 8.43 35 8.43 35 20.13 33.92 20.13 33.92 22.21 32.82 22.21 32.82 25.43 31.72 25.43 31.72 27.57 29.54 27.57 29.54 28.63 27.36 28.63 27.36 29.69 25.17 29.69 25.17 30.75 22.98 30.75 22.98 31.82 21.89 31.82 21.89 32.88 20.8 32.88 20.8 33.97 19.72 33.97 19.72 35 18.6 35 18.6 36.07 14.2 36.07 14.2 35 13.13 35 13.13 33.95 12.02 33.95 12.02 32.9 10.92 32.9 10.92 31.82 9.83 31.82 9.83 29.71 8.72 29.71 8.72 27.56 7.63 27.56 7.63 25.44 6.54 25.44 6.54 24.38 4.36 24.38 4.36 23.33 3.28 23.33 3.28 24.38 2.19 24.38 2.19 25.47 1.1 25.47 1.1 27.54 0 27.54 0 37.13 1.1 37.13 1.1 39.24 2.18 39.24 2.18 42.42 3.27 42.42 3.27 44.55 4.36 44.55 4.36 45.62 6.56 45.62 6.56 47.74 7.65 47.74 7.65 48.8 9.84 48.8 9.84 50.93 10.93 50.93 10.93 52 13.11 52 13.11 54.12 15.33 54.12 15.33 56.23 16.39 56.23 16.39 57.31 17.51 57.31 17.51 61.56 19.69 61.56 19.69 70 27.34 70 27.34 66.87 26.23 66.87 26.23 65.79 22.96 65.79 22.96 64.67 24.04 64.67 24.04 63.63 26.16 63.63 26.16 61.54 28.36 61.54 28.36 60.46 29.56 60.46 29.56 58.44 30.55 58.44 30.55 57.29 31.7 57.29 31.7 60.46 32.79 60.46 32.79 61.56 33.87 61.56 33.87 62.63 35 62.63 35 70 43.75 70 43.75 66.84 42.65 66.84 42.65 65.8 41.56 65.8 41.56 64.77 40.45 64.77 40.45 59.44 39.36 59.44 39.36 55.15 41.54 55.15 41.54 54.11 42.64 54.11 42.64 51.99 43.73 51.99 43.73 50.93 45.92 50.93 45.92 49.87 47.01 49.87 47.01 47.73 49.17 47.73 49.17 48.79 50.28 48.79 50.28 50.91 53.57 50.91 53.57 49.85 54.65 49.85 54.65 45.6 53.57 45.6 53.57 43.46 52.48 43.46 52.48 42.42 51.39 42.42 51.39 41.36 49.2 41.36 49.2 39.23 48.11 39.23 48.11 36.04 49.19 36.04 49.19 37.09 51.39 37.09 51.39 38.15 52.5 38.15 52.5 39.21 60.14 39.21 60.14 38.17 63.42 38.17 63.42 37.12 64.48 37.12 64.48 33.95 63.44 33.95 63.44 32.85 54.68 32.85 54.68 31.81 52.5 31.81 52.5 29.67 51.41 29.67 51.41 23.29 52.49 23.29 52.49 21.18 56.86 21.18 56.86 20.09 64.52 20.09 64.52 19.06 66.71 19.06 66.71 16.93 67.78 16.93 67.78 15.86 68.88 15.86 68.88 14.85 70 14.85 70 8.44 68.93 8.44 68.93 6.33 67.78 6.33 67.78 5.21 66.74 5.21 66.74 4.17 64.55 4.17 64.55 2.01 62.33 2.01 62.33 .94 59.15 .94 59.12 0"/>
      <polygon class="cls-2" points="41.56 7.35 42.67 7.35 42.67 6.29 43.74 6.29 43.74 7.35 44.84 7.35 44.84 8.41 45.94 8.41 45.94 9.49 44.85 9.49 44.85 10.55 43.75 10.55 43.75 11.61 42.66 11.61 42.66 10.57 41.56 10.57 41.56 9.47 40.48 9.47 40.48 8.42 41.58 8.42 41.56 7.35"/>
    </g>
  </g>
</svg>